<svg xmlns="http://www.w3.org/2000/svg" version="1.1" xmlns:xlink="http://www.w3.org/1999/xlink" xmlns:svgjs="http://svgjs.dev/svgjs" width="2000" height="1500" viewBox="0 0 2000 1500"><rect width="2000" height="1500" fill="#000000"></rect><g transform="matrix(0.75,0,0,0.75,249.09154779283585,360.91046336633656)"><svg viewBox="0 0 396 206" data-background-color="#61777f" preserveAspectRatio="xMidYMid meet" height="1040" width="2000" xmlns="http://www.w3.org/2000/svg" xmlns:xlink="http://www.w3.org/1999/xlink"><g id="tight-bounds" transform="matrix(1,0,0,1,0.24008861730862918,-0.24045570957093787)"><svg viewBox="0 0 395.52 206.48091141914188" height="206.48091141914188" width="395.52"><g><svg viewBox="0 0 395.52 206.48091141914188" height="206.48091141914188" width="395.52"><g><svg viewBox="0 0 395.52 206.48091141914188" height="206.48091141914188" width="395.52"><g id="textblocktransform"><svg viewBox="0 0 395.52 206.48091141914188" height="206.48091141914188" width="395.52" id="textblock"><g><svg viewBox="0 0 395.52 206.48091141914188" height="206.48091141914188" width="395.52"><path d="M394.594 44.286C392.735 22.854 387.435 16.895 387.435 16.895 371.165-5.18 350.86-0.422 332.619 2.75 300.414 2.878 268.339 7.594 236.208 10.123 168.767 10.508 100.749 4.164 33.643 19.81 27.339 24.611-6.54 20.753 1.121 47.03 3.129 57.96 10.456 70.091 10.232 80.122 11.236 81.879 12.631 77.85 13.226 80.379 15.309 87.194 18.711 83.979 21.501 88.009 17.614 98.768 20.403 107.727 23.062 117.114 18.377 119.558 12.371 118.4 9.675 126.502 9.396 132.374 7.89 131.26 6.235 131.003 5.026 130.831 2.59 131.474 2.999 133.317 4.394 139.619-1.594 143.262 2.162 149.435-0.422 156.122 3.948 161.909 3.353 169.153 3.278 170.61 3.687 171.853 4.338 172.196 7.22 174.039 3.018 177.64 3.464 181.541 33.029 208.203 65.104 189.771 95.394 202.03 103.259 193.457 97.346 205.074 100.489 203.274 102.943 201.173 104.728 209.875 107.499 204.945 107.927 203.531 107.276 200.187 108.8 200.83 109.6 201.173 110.307 201.087 110.418 199.116 110.586 196.158 109.117 198.001 108.726 196.458 112.947 188.657 111.906 207.217 115.866 206.446 115.68 204.174 114.528 200.916 116.889 201.345 119.232 198.087 119.306 195.386 121.389 202.716 121.463 204.302 121.835 205.417 122.43 206.188 128.938 198.215 135.409 209.018 142.233 205.417 146.417 201.473 150.433 207.56 154.672 206.06 156.16 204.86 157.666 202.716 159.098 206.317 176.632 207.089 195.319 203.874 211.943 206.446 256.364 201.645 303.836 208.417 350.674 202.073 361.719 199.63 373.192 196.158 383.958 193.372 383.958 193.372 392.679 185.742 392.679 151.449S394.538 121.444 394.817 94.139C395.096 66.833 396.398 65.719 394.538 44.286Z" opacity="1" fill="#ffffff" data-fill-palette-color="tertiary"></path><g transform="matrix(1,0,0,1,55.76832,26.230666666666668)"><svg width="283.98335999999995" viewBox="4 -36.3 90.89 49.3" height="154.01957808580855" data-palette-color="#61777f"><path d="M4-36.3L7-36.3 7-21.35Q8.55-23.5 10.6-24.5 12.65-25.5 15.35-25.5L15.35-25.5Q19.4-25.5 21.43-23.38 23.45-21.25 23.45-17.35L23.45-17.35 23.45 0 20.45 0 20.45-16.8Q20.45-19.55 19.1-21.13 17.75-22.7 15.05-22.7L15.05-22.7Q12.65-22.7 10.75-21.45 8.85-20.2 7-17.7L7-17.7 7 0 4 0 4-36.3ZM47.85 0.4Q46.9-0.35 46.32-1.25 45.75-2.15 45.25-3.6L45.25-3.6Q44.25-1.65 42.27-0.58 40.3 0.5 37.5 0.5L37.5 0.5Q33.55 0.5 31.17-1.6 28.8-3.7 28.8-7.3L28.8-7.3Q28.8-11.1 31.47-13.2 34.15-15.3 39.05-15.3L39.05-15.3 44.85-15.3 44.85-17.1Q44.85-20.1 43.55-21.55 42.25-23 39.55-23L39.55-23Q37.55-23 35.45-22.28 33.35-21.55 31.7-20.3L31.7-20.3 30.35-22.5Q32.2-24.05 34.62-24.88 37.05-25.7 39.6-25.7L39.6-25.7Q43.65-25.7 45.75-23.63 47.85-21.55 47.85-17.65L47.85-17.65 47.85-7.2Q47.85-3.35 49.8-1.25L49.8-1.25 47.85 0.4ZM37.55-2.2Q40.9-2.2 42.87-4.05 44.85-5.9 44.85-8.85L44.85-8.85 44.85-12.6 39.75-12.6Q35.5-12.6 33.65-11.38 31.8-10.15 31.8-7.35L31.8-7.35Q31.8-4.85 33.3-3.53 34.8-2.2 37.55-2.2L37.55-2.2ZM65.4-25.5Q66.9-25.5 68.4-25.05L68.4-25.05 68.4-22.25Q66.95-22.6 65.5-22.6L65.5-22.6Q62.95-22.6 61.35-21.35L61.35-21.35Q59.75-20.1 58.5-17.8L58.5-17.8 58.5 0 55.5 0 55.5-17.5Q55.5-21.45 53.4-23.3L53.4-23.3 55.4-25.3Q56.3-24.75 57.1-23.65 57.9-22.55 58.25-21.2L58.25-21.2Q59.65-23.5 61.05-24.35L61.05-24.35Q62.8-25.5 65.4-25.5L65.4-25.5ZM84.14-25.4Q87.59-25.4 90.02-23.68 92.44-21.95 93.67-19.05 94.89-16.15 94.89-12.6L94.89-12.6Q94.89-8.75 93.44-5.8 91.99-2.85 89.24-1.18 86.49 0.5 82.69 0.5L82.69 0.5Q81.44 0.5 76.74-0.15L76.74-0.15 76.74 13 73.89 13 73.89-17.6Q73.89-21.55 71.79-23.4L71.79-23.4 73.79-25.4Q74.64-24.8 75.44-23.75 76.24-22.7 76.59-21.45L76.59-21.45Q78.74-25.4 84.14-25.4L84.14-25.4ZM82.44-2.2Q87.14-2.2 89.52-4.93 91.89-7.65 91.89-12.35L91.89-12.35Q91.89-16.8 89.87-19.75 87.84-22.7 84.24-22.7L84.24-22.7Q81.39-22.7 79.17-20.95 76.94-19.2 76.74-16.4L76.74-16.4 76.74-2.65Q81.34-2.2 82.44-2.2L82.44-2.2Z" opacity="1" transform="matrix(1,0,0,1,0,0)" fill="#000000" class="wordmark-text-0" data-fill-palette-color="quaternary" id="text-0"></path></svg></g></svg></g></svg></g></svg></g><g></g></svg></g><defs></defs></svg><rect width="395.52" height="206.48091141914188" fill="none" stroke="none" visibility="hidden"></rect></g></svg></g></svg>